<svg version="1.1" xmlns="http://www.w3.org/2000/svg" xmlns:xlink="http://www.w3.org/1999/xlink" width="32.02504" height="32.02504" viewBox="0,0,32.02504,32.02504"><g transform="translate(-223.98748,-165.69305)"><g data-paper-data="{&quot;isPaintingLayer&quot;:true}" fill-rule="nonzero" stroke="none" stroke-linecap="butt" stroke-linejoin="miter" stroke-miterlimit="10" stroke-dasharray="" stroke-dashoffset="0" style="mix-blend-mode: normal"><path d="M240,165.69305c8.84347,0 16.01252,7.16905 16.01252,16.01252c0,8.84347 -7.16905,16.01252 -16.01252,16.01252c-8.84347,0 -16.01252,-7.16905 -16.01252,-16.01252c0,-8.84347 7.16905,-16.01252 16.01252,-16.01252z" fill="#000000" stroke-width="0.5"/><path d="M253.95218,177.73388c0,1.32516 -0.99468,2.39942 -2.22168,2.39942c-1.227,0 -2.22168,-1.07426 -2.22168,-2.39942c0,-1.32516 0.99468,-2.39942 2.22168,-2.39942c1.227,0 2.22168,1.07426 2.22168,2.39942z" fill="#ffffff" stroke-width="0"/><path d="M253.68557,184.79884c0,1.25154 -0.99468,2.26612 -2.22168,2.26612c-1.227,0 -2.22168,-1.01458 -2.22168,-2.26612c0,-1.25154 0.99468,-2.26612 2.22168,-2.26612c1.227,0 2.22168,1.01458 2.22168,2.26612z" fill="#ffffff" stroke-width="0"/></g></g></svg>